<svg xmlns="http://www.w3.org/2000/svg" xmlns:xlink="http://www.w3.org/1999/xlink" width="0" height="0" style="position:absolute">

		<symbol id="dribble" viewBox="0 0 1000 1000">
			<path d="M500.637 13.572c-268.894 0-486.789 217.863-486.789 486.65 0 268.759 217.896 486.534 486.789 486.534 268.807 0 486.572-217.836 486.703-486.534-.131-268.696-217.897-486.592-486.703-486.65zm298.199 252.454c47.522 60.219 77.18 134.906 80.92 216.449-54.959-11.699-106.836-17.355-155.326-17.355h-.176c-39.029 0-75.639 3.55-110.048 9.656-8.36-20.513-16.765-40.215-25.345-59.135 76.607-33.751 150.354-81.635 209.975-149.615zM500.637 120.622c89.632 0 171.783 31.313 236.773 83.411-49.722 59.586-115.504 102.749-186.347 133.251-49.941-96.405-98.168-165.405-131.169-207.548 26.049-5.836 53.067-9.114 80.743-9.114zm-167.735 39.494c26.314 31.162 79.072 99.623 135.395 206.555-114.494 34.109-229.997 42.14-299.828 42.14-1.936 0-4.004 0-6.027-.058h-.177c-11.616 0-21.868-.121-30.14-.393 27.324-109.006 101.95-199.393 200.777-248.244zM120.728 500.222c0-1.774.22-3.638.264-5.412 10.868.36 24.729.66 41.45.66h.132c76.255-.481 209.712-6.826 344.796-49.45 7.348 16.063 14.697 32.817 21.869 50.264-90.203 30.108-161.178 78.174-213.892 126.032-50.47 46.02-84.703 91.65-104.679 122.091-55.795-66.025-89.809-150.968-89.94-244.185zm379.909 379.663c-84.57 0-162.365-27.974-225.684-74.778 13.553-22.138 42.33-64.581 88.18-108.437 47.346-45.209 112.248-91.71 197.303-119.385 28.997 80.944 55.223 173.589 74.98 277.813-41.935 15.912-87.257 24.787-134.779 24.787zm214.906-67.287c-19.274-94.24-43.52-179.243-70.052-255.163 24.553-3.551 50.382-5.536 77.884-5.536h1.055c45.322 0 95.044 5.685 148.947 17.928-18.57 100.343-76.74 186.792-157.834 242.771z"></path>
		</symbol>

		<symbol id="facebook" viewBox="0 0 1000 1000">
			<path d="M762.114 28.194H613.231c-61.52 0-112.895 22.726-154.125 68.147-41.244 45.45-61.863 101.017-61.863 166.699v90.168H237.87v155.188h159.373v463.438h178.244V508.397h186.627V353.208H575.487V246.275c0-15.371 3.84-28.319 11.531-38.801 7.686-10.468 16.414-15.724 26.213-15.724h148.883V28.194z"></path>
		</symbol>

		<symbol id="github" viewBox="0 0 1000 1000">
			<path d="M500.552 19.931c-270.543 0-489.671 219.245-489.671 489.668 0 216.372 140.292 399.873 334.813 464.572 24.486 4.591 33.481-10.531 33.481-23.566 0-11.633-.428-42.417-.613-83.245-136.252 29.564-164.957-65.678-164.957-65.678-22.276-56.554-54.479-71.612-54.479-71.612-44.37-30.356 3.43-29.746 3.43-29.746 49.151 3.424 74.98 50.433 74.98 50.433 43.701 74.86 114.648 53.253 142.614 40.705 4.409-31.646 17.016-53.247 31.039-65.49-108.768-12.245-223.049-54.357-223.049-241.956 0-53.441 18.98-97.142 50.377-131.42-5.506-12.36-22.035-62.125 4.286-129.579 0 0 41.01-13.158 134.66 50.192 39.172-10.895 80.794-16.277 122.417-16.524 41.62.246 83.242 5.629 122.414 16.524 93.037-63.35 134.047-50.192 134.047-50.192 26.322 67.455 9.792 117.219 4.899 129.579 31.215 34.279 50.189 77.98 50.189 131.42 0 188.086-114.46 229.524-223.414 241.585 17.142 14.688 33.053 44.68 33.053 90.586 0 65.496-.613 118.134-.613 134.047 0 12.853 8.57 28.157 33.669 23.261C850.05 909.284 990.219 725.66 990.219 509.598c0-270.422-219.245-489.667-489.667-489.667"></path>
		</symbol>

		<symbol id="googleplus" viewBox="0 0 1000 1000">
			<path d="M808.153 253.623h-97.202v155.101H555.845v97.212h155.106v155.115h97.202V505.937H963.26v-97.212H808.153V253.623zm-404.332 92.03c-14.474 36.545-36.182 58.93-65.14 67.212-4.14 1.389-10.345 2.07-18.614 2.07-26.208 0-50.663-11.366-73.417-34.127-22.754-22.747-38.962-52.053-48.606-87.903-9.663-38.588-8.621-75.133 3.099-109.607 11.713-34.461 31.364-55.846 58.936-64.114 5.527-1.362 12.424-2.071 20.693-2.071 63.417 0 105.478 37.226 126.148 111.692 12.409 41.367 11.387 80.303-3.099 116.848m26.895 491.19c-28.276 24.817-66.183 38.602-113.747 41.353-47.564 2.766-88.265-5.516-122.03-24.817-33.792-19.287-52.061-46.87-54.811-82.72-2.757-35.836 11.716-68.24 43.443-97.198 34.463-30.334 73.751-46.189 117.876-47.564h16.542c44.113 0 79.629 11.019 106.522 33.071 26.875 22.094 41.701 51.024 44.466 86.875 2.747 35.849-10.003 66.183-38.261 91m-267.835-392.95c31.705 20.691 69.626 31.015 113.751 31.015h14.484l-2.079 14.479c0 9.671 2.746 23.108 8.284 40.325 5.5 17.244 13.769 33.46 24.811 48.606h-2.064c-23.451 0-47.92 2.071-73.417 6.211-25.512 4.127-55.853 11.728-91.008 22.747-35.163 11.033-63.773 30.682-85.834 58.945-22.064 28.263-33.076 63.433-33.076 105.48 0 42.048 9.971 77.217 29.978 105.467 19.989 28.263 45.5 47.912 76.523 58.944 31.023 11.019 56.875 18.259 77.564 21.705 20.671 3.446 39.281 5.183 55.834 5.183 1.382 0 2.742-.695 4.14-2.056l4.141 2.056h4.125c56.527 0 108.228-11.742 155.122-35.156 79.955-37.226 119.955-104.091 119.955-200.609 0-60.667-35.86-122.03-107.546-184.073-34.489-31.696-51.712-53.414-51.712-65.156 0-11.714 13.099-30.667 39.304-56.874 46.871-38.602 70.318-93.072 70.318-163.369 0-41.366-4.833-74.466-14.485-99.283-9.659-24.831-28.269-44.104-55.833-57.902 6.871-4.141 19.978-6.211 39.292-6.211 53.769-9.644 80.663-22.052 80.663-37.226V53H326.272c-5.53 0-14.485.695-26.887 2.071-12.409 1.389-31.72 6.559-57.917 15.507-26.208 8.977-49.985 20.69-71.341 35.156-21.39 14.493-40.701 36.893-57.917 67.227-17.242 30.347-25.852 65.503-25.852 105.48 0 79.967 25.5 135.119 76.523 165.452" fill="#dd4b39"></path>
		</symbol>

		<symbol id="instagram" viewBox="0 0 1000 1000">
			<path d="M503.605 254.369c-133.748 0-241.63 107.882-241.63 241.631s107.882 241.631 241.63 241.631c133.749 0 241.631-107.882 241.631-241.631S637.354 254.369 503.605 254.369zm0 398.724c-86.431 0-157.092-70.45-157.092-157.093 0-86.642 70.451-157.091 157.092-157.091 86.642 0 157.092 70.45 157.092 157.091 0 86.643-70.661 157.093-157.092 157.093zM811.48 244.485c0 31.334-25.237 56.359-56.36 56.359-31.334 0-56.359-25.235-56.359-56.359 0-31.124 25.234-56.359 56.359-56.359 31.123 0 56.36 25.235 56.36 56.359zm160.037 57.202c-3.577-75.497-20.821-142.372-76.13-197.467-55.096-55.1-121.972-72.343-197.468-76.128-77.808-4.417-311.027-4.417-388.837 0-75.287 3.576-142.16 20.819-197.468 75.916-55.309 55.098-72.342 121.973-76.127 197.468-4.417 77.811-4.417 311.028 0 388.839 3.575 75.496 20.818 142.37 76.127 197.467 55.309 55.098 121.972 72.341 197.468 76.127 77.81 4.417 311.029 4.417 388.837 0 75.496-3.574 142.372-20.817 197.468-76.127 55.098-55.097 72.342-121.971 76.13-197.467 4.415-77.812 4.415-310.82 0-388.628zM870.994 773.801c-16.403 41.219-48.159 72.974-89.585 89.588-62.04 24.604-209.247 18.925-277.803 18.925s-215.974 5.468-277.8-18.925c-41.22-16.403-72.975-48.159-89.588-89.588-24.604-62.037-18.926-209.244-18.926-277.801 0-68.556-5.468-215.975 18.925-277.801 16.404-41.218 48.159-72.973 89.588-89.587 62.038-24.605 209.244-18.927 277.8-18.927s215.976-5.466 277.803 18.927c41.215 16.402 72.971 48.158 89.585 89.587C895.597 280.236 889.92 427.444 889.92 496c.001 68.557 5.678 215.973-18.926 277.801z"></path>
		</symbol>

		<symbol id="linkedIn" viewBox="0 0 1000 1000">
			<path d="M811.531 567.143V796.5h-133V582.479c0-53.674-19.281-90.416-67.375-90.416-36.75 0-58.656 24.68-68.281 48.562-3.531 8.547-4.375 20.447-4.375 32.43V796.5H405.312s1.874-362.506 0-400.047H538.5v56.791c-.344.479-.656.838-.844 1.197h.844v-1.197c17.656-27.236 49.187-66.135 119.875-66.135 87.531-.08 153.156 57.19 153.156 180.034zM266.094 203.6c-45.531 0-75.344 29.832-75.344 69.051 0 38.498 28.937 69.25 73.562 69.25h.906c46.406 0 75.25-30.752 75.25-69.25-.843-39.139-28.843-69.051-74.374-69.051zm-67.5 592.98h133.093V396.533H198.594V796.58z"></path>
		</symbol>

		<symbol id="octocat" viewBox="0 0 1000 1000">
			<path d="M718.765 166.096c12.364 27.88 20.325 74.268 8.456 108.229 48.539 41.509 65.274 142.418 41.823 224.819 69.253 5.265 151.726-2.516 205.024 18.664-49.816-6.312-117.791-18.897-181.999-14.482-12.188.853-30.203-.464-29.314 16.652 74.333 5.807 148.206 12.312 209.218 31.287-60.513-9.914-133.995-24.975-209.218-27.183-31.057 61.337-93.63 91.5-179.903 97.851 9.273 20.252 27.076 27.84 31.445 60.291 6.433 48.634-10.161 119.651 6.148 151.943 7.924 15.568 20.715 15.877 29.35 29.197-21.178 25.015-73.518-2.865-79.558-29.197-10.233-45.149 15.563-115.002-12.508-145.672 1.954 49.255-11.619 118.336 2.132 162.323 5.4 17.387 20.965 24.007 16.736 39.575-98.284 9.989-57.208-127.164-73.34-208.17-14.818 1.084-8.351 22.303-8.387 31.287-.391 79.07 16.203 187.529-69.004 176.883-2.523-16.574 11.405-22.266 16.664-37.33 15.671-44.529-2.842-110.823 4.265-164.413-32.549 24.549 3.411 110.048-16.737 154.113-11.619 25.248-49.105 36.168-77.496 24.938 3.695-18.897 23.203-15.721 31.411-33.379 11.548-24.318.071-59.631 4.192-95.644-60.264 12.004-106.954-1.781-129.803-39.573-10.232-17.038-12.791-37.019-25.085-52.042-12.331-15.102-31.979-17.153-37.7-37.483 74.549-17.851 77.462 76.862 144.477 79.07 20.538.853 31.162-5.77 50.242-10.378 5.331-23.929 16.737-41.702 33.438-54.132-83.359-11.386-152.15-37.212-184.203-99.943-75.756 3.755-145.08 13.902-209.288 29.159 58.238-21.22 130.157-28.848 207.3-31.289-4.584-27.298-44.383-19.748-69.078-18.741-45.943 2.014-103.79 7.706-140.283 14.522 52.98-18.859 127.172-16.496 198.877-16.574-21.923-68.732-14.318-177.851 33.545-218.548-13.609-34.152-9.381-90.067 8.386-116.552 53.37 2.438 85.705 25.633 119.248 47.861 41.608-11.85 85.351-17.698 142.381-14.522 23.983 1.279 48.892 12.081 66.943 10.378 17.659-1.703 37.168-21.529 54.364-29.079 22.316-10.07 41.291-13.788 66.839-14.716z"></path>
		</symbol>

		<symbol id="pinterest" viewBox="0 0 1000 1000">
			<path d="M501.071 32.398c-258.62 0-468.411 209.791-468.411 468.467 0 191.65 115.4 356.566 280.362 429.021-1.27-32.611-.27-71.947 8.196-107.553 9.003-37.922 60.259-255.059 60.259-255.059s-14.931-30.012-14.931-74.15c0-69.347 40.135-121.343 90.428-121.343 42.52 0 63.184 32.046 63.184 70.365 0 42.84-27.437 106.985-41.366 166.273-11.736 49.564 24.935 90.256 73.843 90.256 88.695 0 148.493-113.993 148.493-249.068 0-102.579-69.149-179.555-194.899-179.555-142.143 0-230.531 105.913-230.531 224.259 0 40.805 11.967 69.629 30.86 91.841 8.58 10.399 9.812 14.411 6.655 26.166-2.27 8.535-7.425 29.389-9.541 37.472-3.118 11.868-12.737 16.051-23.357 11.755-65.453-26.676-95.854-98.452-95.854-179.045 0-133.098 112.131-292.589 334.694-292.589 178.699 0 296.487 129.368 296.487 268.342 0 183.738-102.164 321.016-252.619 321.016-50.523 0-98.122-27.354-114.554-58.438 0 0-27.243 107.779-32.862 128.803-9.927 36.058-29.358 72.229-47.06 100.316 42.213 12.434 86.58 19.216 132.754 19.216 258.737 0 468.413-209.791 468.413-468.412-.231-258.565-209.905-468.356-468.643-468.356z"></path>
		</symbol>

		<symbol id="seenthis" viewBox="0 0 1000 1000">
			<path d="M31 26v940h952V26H31zm393.846 546.264c-16.147-8.081-24.212-28.271-14.128-42.396 74.675-34.315 153.409-90.824 153.409-173.58 0-76.696-62.587-111.009-100.925-113.031-28.256-2.022-54.503-18.168-54.503-56.525 0-30.272 18.166-82.756 96.881-82.756 82.759 0 155.43 88.818 155.43 193.768.001 139.28-109.008 236.164-236.164 274.52zm277.114 0c-16.15-8.081-24.231-28.271-14.128-42.396 74.675-34.315 153.39-90.824 153.39-173.58 0-76.696-62.568-111.009-100.908-113.031-28.269-2.022-54.503-18.168-54.503-56.525 0-30.272 18.169-82.756 96.884-82.756 82.759 0 155.411 88.818 155.411 193.768-.001 139.28-108.99 236.164-236.146 274.52z"></path>
		</symbol>

		<symbol id="twitter" viewBox="0 0 1000 1000">
			<path d="M873.104 229.922c43.763-26.817 72.692-63.535 86.812-110.113-42.354 22.606-84.699 38.113-127.053 46.578-38.104-40.916-85.742-61.402-142.925-61.402-57.163 0-105.179 19.419-143.987 58.229-38.827 38.839-58.229 85.758-58.229 140.814 0 16.944 2.124 31.768 6.352 44.473-166.589-5.648-304.209-74.803-412.906-207.523-18.352 32.479-27.514 65.641-27.514 99.529 0 70.578 29.627 126.346 88.923 167.276-33.873-2.816-63.522-11.281-88.923-25.408v2.12c0 48 14.817 90.353 44.459 127.057 29.646 36.69 67.761 59.993 114.345 69.867-16.946 4.239-34.25 6.345-51.877 6.345-17.655 0-30.011-1.395-37.06-4.24 12.704 40.958 36.001 74.12 69.882 99.529 33.873 25.409 72.681 38.824 116.459 40.247-71.996 56.465-154.582 84.69-247.742 84.69-22.602 0-38.827-.697-48.706-2.12 91.755 59.282 194.094 88.93 307.038 88.93 115.739 0 218.093-29.278 307.015-87.877 88.938-58.571 154.585-130.215 196.932-214.92 42.353-84.691 63.522-172.924 63.522-264.685v-25.409c40.929-31.056 74.12-65.641 99.527-103.754-36.709 15.534-74.824 26.119-114.344 31.767"></path>
		</symbol>

		<symbol id="viadeo" viewBox="0 0 1000 1000">
			<path d="M470.777 6.959c81.907 137.699 126.493 261.298 136.528 290.675v-1.235C587.106 84.25 470.592 6.959 470.592 6.959h.185zm409.529 22.353c-41.63 88.561-118.855 104.999-118.855 104.999-77.1 19.586-104.078 49.273-104.078 49.273-77.102 77.59-16.379 171.696-16.379 171.696 166.584-37.937 227.428-174.779 227.428-174.779-7.393 91.944-205.689 200.58-205.689 200.58 65.648 64.171 128.277 56.473 169.664 31.839 54.807-32.636 81.164-104.077 81.164-104.077 53.149-158.885-33.254-279.589-33.254-279.589v.058zM429.885 909.649h1.23c47.543 0 91.145-11.515 130.865-34.485 39.723-22.97 71.191-55.611 94.595-97.918 23.276-42.183 34.977-87.759 34.977-136.718 0-39.597-6.773-76.175-20.939-109.618 23.404-4.923 51.73-14.534 81.294-32.821C769.764 541.319 779 588.186 779 638.744c0 94.221-32.021 176.748-97.297 247.566-65.344 70.265-148.482 105.99-250.098 105.99-102.225 0-185.672-35.292-250.455-105.93-64.664-70.634-96.688-153.22-96.688-247.566 0-93.728 30.668-174.895 92.004-243.685 67.126-75.75 152.301-113.683 255.139-113.683 43.357 0 83.514 6.776 120.52 20.199-12.004 23.523-22.908 52.347-25.861 83.324-29.375-12.317-60.969-18.476-94.84-18.476-71.317 0-132.527 26.787-183.703 80.245-51.111 53.573-76.734 118.238-76.734 193.988 0 49.263 11.701 94.834 35.103 136.713 23.282 42.492 54.809 75.133 94.469 97.918 26.481 15.396 54.5 25.865 84.248 30.788 254.771-98.531 224.778-581.342 222.933-607.824l2.15 6.772C759.539 704.763 433.334 910.45 433.334 910.45h-3.08l-.369-.801z"></path>
		</symbol>

		<symbol id="youtube" viewBox="0 0 1000 1000">
			<path d="M785.162 728.651h-54.227l.333-31.44c0-13.979 11.336-25.389 25.562-25.389h3.452c13.928 0 25.562 11.41 25.562 25.389l-.682 31.44zm-202.816-67.349c-13.684 0-24.984 9.198-24.984 20.512v152.785c0 11.266 11.248 20.464 24.984 20.464 13.735 0 24.983-9.246 24.983-20.464V681.814c-.104-11.314-11.248-20.512-24.983-20.512zm329.347-85.46v290.583c0 69.751-60.428 126.771-134.205 126.771H224.841c-73.919 0-134.206-57.02-134.206-126.771V575.842c0-69.703 60.428-126.798 134.206-126.798h552.542c73.883.001 134.31 57.047 134.31 126.798zM261.686 898.01V591.838l68.559.048v-45.347l-182.633-.241v44.554l57.063.145V898.01h57.011zm205.375-260.535h-57.064v163.522c0 23.609 1.332 35.475-.104 39.655-4.713 12.681-25.562 26.108-33.675 1.369-1.402-4.371-.192-17.415-.244-39.944l-.193-164.602h-56.783l.192 161.985c0 24.859-.666 43.403.192 51.808 1.35 14.868.964 32.209 14.699 42.058 25.668 18.495 74.9-2.81 87.199-29.207l-.053 33.795 45.834.048V637.475zm182.738 187.131l-.193-136.066c-.104-51.882-38.824-82.939-91.561-40.978l.279-101.167-57.012.048-.332 349.237 46.779-.72 4.328-21.714c59.99 55.05 97.8 17.39 97.712-48.64zm178.603-17.989l-42.75.193c-.105 1.704-.105 3.675-.193 5.836v23.874c0 12.731-10.582 23.156-23.354 23.156h-8.497c-12.878 0-23.391-10.425-23.391-23.156v-62.833h97.887v-36.942c0-26.948-.665-53.899-2.926-69.344-6.955-48.757-75.461-56.541-110.045-31.537-10.863 7.759-19.133 18.206-23.828 32.257-4.994 13.979-7.219 33.219-7.219 57.502v81.137c.105 134.963 163.922 115.844 144.316-.143zM608.766 366.156c3.031 7.181 7.446 12.969 13.701 17.319 6.045 4.323 13.929 6.485 23.478 6.485 8.165 0 15.33-2.21 21.813-6.846 6.342-4.516 11.58-11.36 15.943-20.464l-1.052 22.385h63.599V114.341h-50.143v210.694c0 11.41-9.426 20.753-20.902 20.753s-20.85-9.343-20.85-20.753V114.341h-52.315v182.543c0 23.276.491 38.768 1.104 46.646.928 7.854 2.698 15.396 5.624 22.626zM415.936 213.25c0-25.965 2.226-46.236 6.448-60.84 4.415-14.603 12.106-26.3 23.53-35.164 11.248-8.863 25.667-13.331 43.152-13.331 14.787 0 27.367 2.906 37.949 8.55 10.617 5.716 18.781 13.09 24.389 22.242 5.764 9.152 9.618 18.543 11.721 28.175 2.225 9.75 3.137 24.45 3.137 44.338v68.48c0 25.076-1.017 43.571-3.031 55.268-1.928 11.77-6.15 22.65-12.58 32.93-6.342 10.112-14.559 17.654-24.511 22.483-9.987 4.899-21.515 7.205-34.48 7.205-14.507 0-26.718-2.017-36.81-6.198-10.074-4.13-17.818-10.425-23.479-18.734-5.623-8.311-9.566-18.495-11.966-30.361-2.4-11.842-3.47-29.64-3.47-53.369V213.25h.001zm49.775 107.558c0 15.324 11.441 27.838 25.318 27.838 13.928 0 25.316-12.514 25.316-27.838v-144.09c0-15.348-11.248-27.79-25.316-27.79-13.789 0-25.318 12.49-25.318 27.79v144.09zm-176.115 72.778h60.061l.053-207.622L420.648 8.128H354.93l-37.756 132.128L278.943 7.841h-64.895l75.512 178.268.036 207.477z"></path>
		</symbol>

</svg>
