<svg xmlns="http://www.w3.org/2000/svg" width="128" height="128" viewBox="0 0 128 128">
  <path fill="#FFF" d="M45.896 42.411v2.359h-1.729v2.887h1.729v8.574h3.556v-8.574h2.384s.223-1.385.331-2.898h-2.701v-1.973c0-.295.388-.691.771-.691h1.936v-3.004h-2.631c-3.732 0-3.646 2.886-3.646 3.32zm2.69-34.145a7.899 7.899 0 1 0 0 15.798 7.9 7.9 0 0 0 7.9-7.898 7.903 7.903 0 0 0-7.9-7.9zm4.841 4.098a6.106 6.106 0 0 1 1.313 3.514 12.132 12.132 0 0 0-2.521-.282h-.003c-.634 0-1.228.058-1.786.157a27.955 27.955 0 0 0-.412-.96c1.244-.548 2.441-1.325 3.409-2.429zm-4.841-2.36c1.455 0 2.788.508 3.844 1.354-.808.967-1.875 1.668-3.025 2.163-.811-1.565-1.595-2.685-2.129-3.369.422-.095.86-.148 1.31-.148zm-2.723.641c.427.506 1.283 1.617 2.198 3.353-1.859.554-3.734.684-4.868.684l-.098-.001h-.002c-.189 0-.354-.002-.49-.006a6.19 6.19 0 0 1 3.26-4.03zm-3.444 5.521c0-.029.003-.059.004-.088.177.006.401.011.673.011h.002c1.238-.008 3.404-.111 5.598-.803.119.261.238.533.354.816a9.771 9.771 0 0 0-3.472 2.046 10.564 10.564 0 0 0-1.699 1.982 6.125 6.125 0 0 1-1.46-3.964zm6.167 6.163a6.138 6.138 0 0 1-3.664-1.214 9.046 9.046 0 0 1 1.432-1.76 8.384 8.384 0 0 1 3.203-1.938 29.86 29.86 0 0 1 1.217 4.51 6.159 6.159 0 0 1-2.188.402zm3.488-1.092a31.731 31.731 0 0 0-1.137-4.142c.399-.058.818-.09 1.264-.09h.018c.735 0 1.543.092 2.418.291a6.161 6.161 0 0 1-2.563 3.941zM9.282 55.552h5.798v-3.659l-1.742-1.288.426-.678 1.316.966v-2.834h1.801v1.803l1.301-.74.375.742-1.676.955v1.022l2.523-1.362.335.733-2.858 1.543v2.797h3.588v.031h2.571l-6.885-17.775zm46.43 26.178v5.609H52.46v-5.234c0-1.312-.472-2.211-1.647-2.211-.899 0-1.435.604-1.67 1.188-.086.209-.107.5-.107.793v5.464H45.78s.045-8.865 0-9.783h3.256v1.389l-.021.029h.021v-.029c.432-.666 1.203-1.617 2.931-1.617 2.14-.002 3.745 1.399 3.745 4.402zm-13.337-8.889c-1.113 0-1.843.729-1.843 1.688 0 .941.708 1.693 1.799 1.693h.022c1.135 0 1.841-.752 1.841-1.693-.021-.957-.706-1.688-1.819-1.688zm-1.65 14.5h3.254v-9.782h-3.254v9.782zm-20.633 15.902c-1.649 1.028-3.349.159-4.574 0-5.41-.713-7.13 5.599-3.188 8.129-1.015.524-.948 3.201.139 3.582-2.562.293-3.036 3.901-1.663 5.375 1.67 1.789 6.809 1.672 8.316 0 1.052-1.168 1.198-3.573.276-4.687-.84-1.014-5.055-1.166-4.989-2.756.045-1.109 1.569-.936 2.495-1.377 1.741-.832 2.762-3.322 2.079-5.236.389-.071.721-.203 1.109-.274v-2.756zm-6.652 5.787c-2.029-4.419 4.663-4.103 2.633 0-.666.493-1.976.543-2.633 0zm3.742 8.68c.18 1.981-3.833 2.07-4.297.69-.39-1.164.096-1.493 1.247-1.793 1.306-.337 2.929-.221 3.05 1.103zm36.43-14.244c.311.703.512 1.873.212 2.729 1.225 1.047 1.646 3.592 1.055 5.67 1.747.133 3.827-.063 5.171.471-1.256-.159-2.971-.477-4.59-.365-.308.021-.762-.012-.739.42 1.874.146 3.737.31 5.276.789-1.526-.25-3.379-.63-5.276-.686-.784 1.547-2.361 2.308-4.537 2.468.233.511.682.702.792 1.521.162 1.226-.256 3.017.156 3.832.199.392.522.4.74.736-.534.631-1.855-.072-2.007-.736-.257-1.139.393-2.901-.315-3.674.05 1.242-.293 2.984.053 4.094.137.438.53.605.423.998-2.479.252-1.443-3.207-1.85-5.25-.373.027-.21.562-.211.789-.01 1.994.408 4.729-1.741 4.461-.063-.418.288-.562.421-.942.395-1.123-.072-2.795.107-4.147-.82.619.086 2.776-.422 3.887-.293.637-1.238.912-1.954.629.093-.477.585-.396.792-.842.291-.613.002-1.504.105-2.412-1.519.303-2.697-.045-3.273-.998-.258-.43-.322-.934-.633-1.312-.311-.381-.807-.433-.95-.945 1.88-.451 1.953 1.938 3.643 1.994.518.021.786-.146 1.267-.262.135-.604.422-1.052.844-1.365-2.102-.287-3.838-.939-4.645-2.521-1.912.095-3.66.351-5.279.735 1.469-.535 3.283-.727 5.227-.789-.115-.688-1.119-.498-1.742-.473-1.158.051-2.617.195-3.537.367 1.336-.475 3.207-.416 5.016-.418-.554-1.734-.361-4.486.845-5.512-.343-.861-.235-2.271.211-2.939 1.347.061 2.163.646 3.009 1.207 1.049-.299 2.152-.447 3.59-.367.605.033 1.233.305 1.688.262.446-.043.938-.543 1.372-.733.563-.254 1.041-.348 1.686-.371zM24.71 10.921a6.94 6.94 0 0 1-1.992.546 3.48 3.48 0 0 0 1.525-1.92 6.921 6.921 0 0 1-2.203.842 3.469 3.469 0 0 0-5.911 3.164 9.851 9.851 0 0 1-7.151-3.625 3.448 3.448 0 0 0-.47 1.745c0 1.204.612 2.265 1.543 2.887a3.468 3.468 0 0 1-1.572-.434v.043a3.472 3.472 0 0 0 2.783 3.402 3.44 3.44 0 0 1-1.567.06 3.473 3.473 0 0 0 3.241 2.409 6.957 6.957 0 0 1-4.309 1.485 7.08 7.08 0 0 1-.828-.048 9.821 9.821 0 0 0 5.318 1.558c6.381 0 9.871-5.286 9.871-9.871 0-.15-.003-.3-.01-.448a7.022 7.022 0 0 0 1.732-1.795zm56.72 74.291c-.279-.164-.537-.444-.639-.72-.104-.272-.092-.828-.092-1.793v-4.264h3.877v-2.968h-3.877v-3.846h-2.383c-.107.854-.305 1.563-.59 2.119a4.557 4.557 0 0 1-1.131 1.428c-.469.396-1.23.701-1.892.91v2.354h2.276v5.83c0 .762.08 1.342.24 1.741.162.397.449.776.866 1.136.415.353.918.627 1.507.819a5.26 5.26 0 0 0 1.809.284c.677 0 1.304-.067 1.886-.198.58-.138 1.229-.373 1.944-.705V84.72c-.84.548-1.685.819-2.532.819a2.403 2.403 0 0 1-1.269-.327zm4.513-65.057h-1.102l.006-.639c0-.284.231-.516.52-.516h.07c.283 0 .52.232.52.516l-.014.639zm-4.123-1.369c-.278 0-.508.187-.508.417v3.106c0 .229.229.416.508.416s.508-.188.508-.416v-3.106c-.002-.23-.228-.417-.508-.417zm6.696-1.737v5.907c0 1.418-1.229 2.577-2.729 2.577H74.553c-1.503 0-2.729-1.159-2.729-2.577v-5.907c0-1.417 1.229-2.578 2.729-2.578h11.232c1.502 0 2.731 1.16 2.731 2.578zm-13.214 6.549v-6.224l1.394.001v-.922l-3.713-.005v.906l1.16.003v6.241h1.159zm4.175-5.296h-1.16v3.324c0 .48.027.721-.002.806-.096.258-.52.531-.685.028-.028-.089-.004-.354-.005-.812l-.004-3.346h-1.154l.004 3.293c0 .505-.014.882.004 1.053.027.302.019.655.299.855.521.376 1.522-.057 1.772-.594l-.001.687.932.001v-5.295zm3.714 3.804l-.004-2.766c-.002-1.055-.789-1.686-1.861-.833l.006-2.057-1.159.001-.007 7.1.951-.015.088-.441c1.22 1.119 1.988.353 1.986-.989zm3.631-.366l-.869.004-.004.119v.485a.475.475 0 0 1-.475.471h-.172a.475.475 0 0 1-.476-.471v-1.277h1.991v-.751c0-.548-.014-1.096-.06-1.41-.142-.991-1.534-1.149-2.237-.641-.221.158-.389.37-.485.656-.101.284-.147.675-.147 1.169v1.649c.003 2.744 3.333 2.355 2.934-.003zm-4.465-8.954a.79.79 0 0 0 .279.352.803.803 0 0 0 .477.132.736.736 0 0 0 .443-.139c.129-.092.236-.231.325-.416l-.021.455h1.293V7.667h-1.02v4.283a.425.425 0 0 1-.849 0V7.667h-1.063v3.711c0 .473.01.788.022.948.019.16.055.313.114.46zm-3.919-3.108c0-.528.045-.94.131-1.237.089-.297.246-.535.478-.715.229-.18.521-.271.877-.271.3 0 .556.059.771.174.216.116.382.266.496.452.117.186.196.377.238.573.045.198.064.497.064.901v1.392c0 .51-.021.886-.061 1.124-.039.239-.125.46-.256.669a1.205 1.205 0 0 1-.498.457 1.57 1.57 0 0 1-.701.147 1.95 1.95 0 0 1-.748-.126c-.205-.084-.363-.212-.478-.381s-.194-.376-.243-.617c-.049-.241-.07-.603-.07-1.085V9.678zm1.011 2.186c0 .312.232.566.515.566.283 0 .515-.254.515-.566V8.935c0-.312-.229-.565-.515-.565-.28 0-.515.254-.515.565v2.929zm-3.58 1.48h1.221l.001-4.221 1.442-3.615h-1.336l-.767 2.686-.777-2.692h-1.32l1.535 3.624.001 4.218zm4.301 91.344a8.096 8.096 0 0 0-8.094 8.094 8.1 8.1 0 0 0 4.845 7.414c-.022-.564-.005-1.244.142-1.859l1.041-4.408s-.258-.518-.258-1.281c0-1.198.693-2.096 1.562-2.096.735 0 1.092.553 1.092 1.215 0 .741-.474 1.849-.715 2.873-.203.857.431 1.56 1.276 1.56 1.533 0 2.566-1.97 2.566-4.304 0-1.772-1.195-3.102-3.368-3.102-2.456 0-3.983 1.83-3.983 3.875 0 .705.207 1.203.533 1.587.148.179.17.249.115.452-.039.148-.128.508-.165.648-.054.205-.22.277-.403.203-1.131-.461-1.657-1.701-1.657-3.094 0-2.3 1.938-5.056 5.784-5.056 3.088 0 5.123 2.235 5.123 4.637 0 3.175-1.766 5.547-4.366 5.547-.873 0-1.695-.473-1.979-1.01 0 0-.471 1.862-.568 2.226-.172.623-.508 1.248-.813 1.733a8.094 8.094 0 0 0 10.388-7.762 8.1 8.1 0 0 0-8.098-8.092zm7.994-59.73c-.074 1.656-1.23 3.923-3.469 6.801-2.312 3.006-4.268 4.509-5.867 4.509-.989 0-1.83-.915-2.516-2.746l-1.371-5.035c-.51-1.83-1.057-2.746-1.64-2.746-.128 0-.573.268-1.335.801l-.801-1.031c.84-.738 1.668-1.475 2.48-2.214 1.121-.967 1.961-1.476 2.521-1.528 1.323-.127 2.139.778 2.441 2.715.332 2.09.562 3.39.688 3.899.382 1.734.802 2.6 1.261 2.6.355 0 .892-.562 1.604-1.687s1.095-1.981 1.145-2.569c.104-.971-.279-1.457-1.145-1.457-.407 0-.827.093-1.26.279.836-2.738 2.435-4.069 4.791-3.992 1.75.05 2.575 1.185 2.473 3.401z"/>
  <circle fill="#1C6CD6" cx="107.134" cy="16.166" r="3.854"/>
  <circle fill="#F82386" cx="116.421" cy="16.166" r="3.854"/>
  <path fill="#FFF" d="M25.351 79.143H22.89V76.68h-1.232v2.463h-2.461v1.228h2.461v2.461h1.232v-2.461h2.461zm-8.69 2.886c-.495-.371-1.571-1.133-1.571-1.645 0-.599.172-.894 1.072-1.597.923-.724 1.576-1.672 1.576-2.853 0-1.287-.525-2.451-1.515-3.02h1.401l1.192-1.25H13.48c-2.709 0-4.964 1.996-4.964 4.193 0 2.242 1.482 4.031 4.028 4.031.178 0 .349-.01.518-.021-.165.316-.283.67-.283 1.039 0 .625.344.979.768 1.394-.321 0-.631.009-.967.009-3.102 0-5.271 2.133-5.271 4.183 0 2.016 2.616 3.276 5.716 3.276 3.535 0 5.708-2.006 5.708-4.021.001-1.613-.349-2.427-2.072-3.718zm-3.083-2.951c-1.438-.043-2.806-1.362-3.055-3.25-.247-1.891.717-3.334 2.154-3.293 1.438.045 2.669 1.595 2.917 3.48.249 1.891-.579 3.106-2.016 3.063zm-.563 9.803c-2.144 0-3.69-1.355-3.69-2.984 0-1.598 1.815-2.976 3.958-2.951.5.005.966.087 1.389.224 1.164.81 2.102 1.313 2.338 2.236.044.186.067.379.067.573-.001 1.63-1.05 2.902-4.062 2.902zm95.447-36.826c.358.36.58.849.581 1.393a1.972 1.972 0 0 1-.58 1.391l-.001.001a1.974 1.974 0 0 1-2.793-.001 1.965 1.965 0 0 1 0-2.785c.359-.359.85-.58 1.396-.58.544 0 1.037.223 1.397.581zm0 0zm-2.795 2.785c-.002-.001-.002-.001 0 0zm-.579-9.233v2.843a6.933 6.933 0 0 1 4.926 2.047 6.947 6.947 0 0 1 2.043 4.932h.002v.005h2.854a9.804 9.804 0 0 0-2.884-6.943 9.804 9.804 0 0 0-6.941-2.884zm.005-5.062v2.841c6.636.005 12.029 5.408 12.034 12.049h2.852a14.867 14.867 0 0 0-4.367-10.522 14.854 14.854 0 0 0-10.519-4.368zm14.855 41.002a8.266 8.266 0 0 0-9.455-9.454 4.992 4.992 0 0 0-7.616 4.252c0 .962.271 1.858.743 2.622a8.724 8.724 0 0 0-.103 1.29 8.267 8.267 0 0 0 9.556 8.164 4.994 4.994 0 0 0 6.875-6.874zm-4.24 2.469c-.351.504-.864.896-1.535 1.18-.672.283-1.467.425-2.385.425-1.103 0-2.013-.19-2.729-.58a3.501 3.501 0 0 1-1.242-1.117c-.32-.467-.481-.924-.481-1.366a.91.91 0 0 1 .296-.679c.195-.188.449-.28.75-.28a.93.93 0 0 1 .627.221c.172.146.312.358.43.641.142.324.293.598.455.812.16.215.387.395.681.533.288.141.676.211 1.157.211.66 0 1.192-.146 1.603-.426.41-.283.608-.63.608-1.05 0-.332-.106-.599-.325-.806-.22-.209-.505-.366-.855-.479-.354-.111-.829-.23-1.426-.357-.799-.174-1.469-.377-2.01-.608-.541-.233-.976-.556-1.296-.959-.319-.408-.479-.916-.479-1.519 0-.571.17-1.086.509-1.53.338-.447.826-.791 1.463-1.029.637-.237 1.385-.356 2.24-.356.686 0 1.276.08 1.778.236.5.159.918.368 1.25.633.332.264.576.539.729.829.153.292.23.576.23.854 0 .26-.1.492-.295.697a.974.974 0 0 1-.734.311c-.264 0-.469-.061-.611-.188-.14-.125-.284-.322-.442-.599-.199-.385-.438-.685-.719-.897-.271-.209-.718-.318-1.341-.316-.573 0-1.034.117-1.383.348-.352.232-.52.506-.52.822 0 .199.059.367.174.512.117.146.279.271.488.377.209.105.422.189.637.25.217.062.574.148 1.074.269.625.135 1.193.284 1.703.448.51.166.943.365 1.303.603.363.235.646.537.848.901.203.365.305.812.305 1.334a2.928 2.928 0 0 1-.53 1.694zm2.049 30.809c.048-.259.082-.521.084-.779.013-3.266-1.762-4.537-3.643-5.625.545 2.856-1.216 4.624-3.401 4.006 3.196-5.229-1.455-5.239-.033-9.018-2.187 1.555-4.379 5.897-4.371 9.071.002.836.084 1.614.241 2.328-1.573.631-2.562 1.523-2.562 2.515 0 1.903 3.643 3.457 8.105 3.457 4.467 0 8.104-1.554 8.104-3.457.003-.982-.97-1.869-2.524-2.498zm-8.682-4.15c-.604 2.728 1.017 4.757 2.577 4.775 1.763.015 2.806-1.632 3.302-3.787.938.713 1.42 1.709 1.481 2.726l-.008-.002a3.807 3.807 0 0 1-1.375 3.146c-.005.004-.011.008-.016.014a4.324 4.324 0 0 1-.699.473c-.023.013-.047.021-.068.035a4.145 4.145 0 0 1-.317.148c-.032.015-.063.027-.097.041-.27.107-.558.193-.864.261a2.423 2.423 0 0 1-.635.095 5.208 5.208 0 0 1-.51.032 3.63 3.63 0 0 1-.363-.011l-.096-.008a3.685 3.685 0 0 1-.303-.039 3.561 3.561 0 0 1-.456-.104 3.686 3.686 0 0 1-.354-.119c-1.448-.568-2.502-1.979-2.444-3.938-.004 0-.006 0-.009.002.033-1.092.408-2.354 1.254-3.74z"/>
</svg>
